<svg xmlns="http://www.w3.org/2000/svg" width="262pt" height="313pt" viewBox="0.00 0.00 261.51 313.22" xmlns:xlink="http://www.w3.org/1999/xlink">
<style>
a.external_repository_anchor {
  fill: #0366d6;
  text-decoration: underline;
}
</style><g id="graph0" class="graph" transform="scale(1 1) rotate(0) translate(4 309.22)">
<title>TemporaryFileDependenciesGraph</title>
<polygon fill="white" stroke="transparent" points="-4,4 -4,-309.22 257.51,-309.22 257.51,4 -4,4" />

<g id="node1" class="node">
<title>Ranges</title>
<ellipse fill="none" stroke="black" cx="44" cy="-26.87" rx="40.11" ry="26.74" />
<text text-anchor="middle" x="44" y="-30.67" font-family="monospace" font-size="12px"><a href="https://github.com/YOCKOW/SwiftRanges.git" xlink:href="https://github.com/YOCKOW/SwiftRanges.git" class="external_repository_anchor">Ranges</a></text>
<text text-anchor="middle" x="44" y="-15.67" font-family="monospace" font-size="12px">@3.1.1</text>
</g>

<g id="node2" class="node">
<title>TemporaryFile</title>
<polygon fill="none" stroke="black" points="98,-305.22 0,-305.22 0,-269.22 98,-269.22 98,-305.22" />
<text text-anchor="middle" x="49" y="-283.52" font-family="monospace" font-size="12px">TemporaryFile</text>
</g>

<g id="edge1" class="edge">
<title>TemporaryFile-&gt;Ranges</title>
<path fill="none" stroke="black" d="M39.05,-269.2C33.73,-259.11 27.73,-245.86 25,-233.22 12.32,-174.5 24.43,-104.54 34.27,-63.3" />
<polygon fill="black" stroke="black" points="37.7,-64.01 36.71,-53.46 30.91,-62.32 37.7,-64.01" />
</g>

<g id="node4" class="node">
<title>yExtensions</title>
<ellipse fill="none" stroke="black" cx="93" cy="-206.35" rx="58.88" ry="26.74" />
<text text-anchor="middle" x="93" y="-210.15" font-family="monospace" font-size="12px"><a href="https://github.com/YOCKOW/ySwiftExtensions.git" xlink:href="https://github.com/YOCKOW/ySwiftExtensions.git" class="external_repository_anchor">yExtensions</a></text>
<text text-anchor="middle" x="93" y="-195.15" font-family="monospace" font-size="12px">@1.6.1</text>
</g>

<g id="edge2" class="edge">
<title>TemporaryFile-&gt;yExtensions</title>
<path fill="none" stroke="black" d="M58.55,-269.11C63.07,-261 68.63,-251.03 73.96,-241.47" />
<polygon fill="black" stroke="black" points="77.14,-242.96 78.96,-232.52 71.03,-239.55 77.14,-242.96" />
</g>

<g id="node3" class="node">
<title>UnicodeSupplement</title>
<ellipse fill="none" stroke="black" cx="163" cy="-116.61" rx="90.52" ry="26.74" />
<text text-anchor="middle" x="163" y="-120.41" font-family="monospace" font-size="12px"><a href="https://github.com/YOCKOW/SwiftUnicodeSupplement.git" xlink:href="https://github.com/YOCKOW/SwiftUnicodeSupplement.git" class="external_repository_anchor">UnicodeSupplement</a></text>
<text text-anchor="middle" x="163" y="-105.41" font-family="monospace" font-size="12px">@1.0.1</text>
</g>

<g id="edge3" class="edge">
<title>UnicodeSupplement-&gt;Ranges</title>
<path fill="none" stroke="black" d="M130.17,-91.4C114.12,-79.57 94.8,-65.32 78.53,-53.33" />
<polygon fill="black" stroke="black" points="80.45,-50.4 70.33,-47.28 76.3,-56.03 80.45,-50.4" />
</g>

<g id="edge4" class="edge">
<title>yExtensions-&gt;Ranges</title>
<path fill="none" stroke="black" d="M78.73,-180.15C73.07,-169.18 66.97,-156 63,-143.48 54.79,-117.59 49.97,-87.25 47.24,-64.15" />
<polygon fill="black" stroke="black" points="50.71,-63.64 46.13,-54.08 43.75,-64.41 50.71,-63.64" />
</g>

<g id="edge5" class="edge">
<title>yExtensions-&gt;UnicodeSupplement</title>
<path fill="none" stroke="black" d="M112.5,-180.91C119.97,-171.55 128.62,-160.71 136.63,-150.67" />
<polygon fill="black" stroke="black" points="139.37,-152.84 142.87,-142.84 133.9,-148.47 139.37,-152.84" />
</g>
</g>
</svg>