<svg xmlns="http://www.w3.org/2000/svg" width="192pt" height="305pt" viewBox="0.00 0.00 192.29 304.74" xmlns:xlink="http://www.w3.org/1999/xlink">
<style>
a.external_repository_anchor {
  fill: #0366d6;
  text-decoration: underline;
}
</style><g id="graph0" class="graph" transform="scale(1 1) rotate(0) translate(4 300.74)">
<title>TemporaryFileDependenciesGraph</title>
<polygon fill="white" stroke="transparent" points="-4,4 -4,-300.74 188.29,-300.74 188.29,4 -4,4" />

<g id="node1" class="node">
<title>Ranges</title>
<ellipse fill="none" stroke="black" cx="92.14" cy="-25.46" rx="40.41" ry="25.41" />
<text text-anchor="middle" x="92.14" y="-28.26" font-family="monospace" font-size="12px"><a href="https://github.com/YOCKOW/SwiftRanges.git" xlink:href="https://github.com/YOCKOW/SwiftRanges.git" class="external_repository_anchor">Ranges</a></text>
<text text-anchor="middle" x="92.14" y="-14.26" font-family="monospace" font-size="12px">@3.1.1</text>
</g>

<g id="node2" class="node">
<title>TemporaryFile</title>
<polygon fill="none" stroke="black" points="141.64,-296.74 42.65,-296.74 42.65,-260.74 141.64,-260.74 141.64,-296.74" />
<text text-anchor="middle" x="92.14" y="-274.54" font-family="monospace" font-size="12px">TemporaryFile</text>
</g>

<g id="node4" class="node">
<title>yExtensions</title>
<ellipse fill="none" stroke="black" cx="92.14" cy="-199.28" rx="59.92" ry="25.41" />
<text text-anchor="middle" x="92.14" y="-202.08" font-family="monospace" font-size="12px"><a href="https://github.com/YOCKOW/ySwiftExtensions.git" xlink:href="https://github.com/YOCKOW/ySwiftExtensions.git" class="external_repository_anchor">yExtensions</a></text>
<text text-anchor="middle" x="92.14" y="-188.08" font-family="monospace" font-size="12px">@1.2.0</text>
</g>

<g id="edge1" class="edge">
<title>TemporaryFile-&gt;yExtensions</title>
<path fill="none" stroke="black" d="M92.14,-260.55C92.14,-252.99 92.14,-243.82 92.14,-234.94" />
<polygon fill="black" stroke="black" points="95.64,-234.77 92.14,-224.77 88.64,-234.77 95.64,-234.77" />
</g>

<g id="node3" class="node">
<title>UnicodeSupplement</title>
<ellipse fill="none" stroke="black" cx="92.14" cy="-112.37" rx="92.29" ry="25.41" />
<text text-anchor="middle" x="92.14" y="-115.17" font-family="monospace" font-size="12px"><a href="https://github.com/YOCKOW/SwiftUnicodeSupplement.git" xlink:href="https://github.com/YOCKOW/SwiftUnicodeSupplement.git" class="external_repository_anchor">UnicodeSupplement</a></text>
<text text-anchor="middle" x="92.14" y="-101.17" font-family="monospace" font-size="12px">@1.0.0</text>
</g>

<g id="edge2" class="edge">
<title>UnicodeSupplement-&gt;Ranges</title>
<path fill="none" stroke="black" d="M92.14,-86.81C92.14,-78.8 92.14,-69.75 92.14,-61.14" />
<polygon fill="black" stroke="black" points="95.64,-60.96 92.14,-50.96 88.64,-60.96 95.64,-60.96" />
</g>

<g id="edge3" class="edge">
<title>yExtensions-&gt;UnicodeSupplement</title>
<path fill="none" stroke="black" d="M92.14,-173.72C92.14,-165.71 92.14,-156.66 92.14,-148.05" />
<polygon fill="black" stroke="black" points="95.64,-147.87 92.14,-137.87 88.64,-147.87 95.64,-147.87" />
</g>
</g>
</svg>